<svg width="50" height="50" viewBox="0 0 50 50" fill="none" xmlns="http://www.w3.org/2000/svg">
<path d="M21.6667 44.9999L45 21.6666C47.1512 19.4444 48.3428 16.4656 48.3176 13.3729C48.2925 10.2801 47.0528 7.32111 44.8658 5.13412C42.6788 2.94713 39.7198 1.70738 36.6271 1.68227C33.5343 1.65716 30.5556 2.8487 28.3334 4.9999L5.00002 28.3332C2.84883 30.5554 1.65729 33.5342 1.6824 36.6269C1.7075 39.7197 2.94725 42.6787 5.13424 44.8657C7.32123 47.0527 10.2802 48.2924 13.373 48.3175C16.4658 48.3426 19.4445 47.1511 21.6667 44.9999Z" stroke="#07AA97" stroke-width="3.33333" stroke-linecap="round" stroke-linejoin="round"/>
<path d="M33.3334 33.3332C25.8442 30.1234 19.8765 24.1558 16.6667 16.6665" stroke="#07AA97" stroke-width="3.33333" stroke-linecap="round" stroke-linejoin="round"/>
</svg>
