<svg width="57" height="64" viewBox="0 0 57 64" fill="none" xmlns="http://www.w3.org/2000/svg">
<path d="M13.3333 0.666748H16.6667C17.5507 0.666748 18.3986 1.01794 19.0237 1.64306C19.6488 2.26818 20 3.11603 20 4.00008V7.33341H36.6667V4.00008C36.6667 3.11603 37.0179 2.26818 37.643 1.64306C38.2681 1.01794 39.1159 0.666748 40 0.666748H43.3333C44.2174 0.666748 45.0652 1.01794 45.6904 1.64306C46.3155 2.26818 46.6667 3.11603 46.6667 4.00008V7.33341C49.3188 7.33341 51.8624 8.38698 53.7377 10.2623C55.6131 12.1377 56.6667 14.6812 56.6667 17.3334V54.0001C56.6667 56.6522 55.6131 59.1958 53.7377 61.0711C51.8624 62.9465 49.3188 64.0001 46.6667 64.0001H10C7.34784 64.0001 4.8043 62.9465 2.92893 61.0711C1.05357 59.1958 0 56.6522 0 54.0001V17.3334C0 14.6812 1.05357 12.1377 2.92893 10.2623C4.8043 8.38698 7.34784 7.33341 10 7.33341V4.00008C10 3.11603 10.3512 2.26818 10.9763 1.64306C11.6014 1.01794 12.4493 0.666748 13.3333 0.666748ZM40 7.33341H43.3333V4.00008H40V7.33341ZM16.6667 7.33341V4.00008H13.3333V7.33341H16.6667ZM10 10.6667C8.23189 10.6667 6.5362 11.3691 5.28595 12.6194C4.03571 13.8696 3.33333 15.5653 3.33333 17.3334V20.6667H53.3333V17.3334C53.3333 15.5653 52.631 13.8696 51.3807 12.6194C50.1305 11.3691 48.4348 10.6667 46.6667 10.6667H10ZM3.33333 54.0001C3.33333 55.7682 4.03571 57.4639 5.28595 58.7141C6.5362 59.9644 8.23189 60.6667 10 60.6667H46.6667C48.4348 60.6667 50.1305 59.9644 51.3807 58.7141C52.631 57.4639 53.3333 55.7682 53.3333 54.0001V24.0001H3.33333V54.0001ZM30 37.3334H46.6667V54.0001H30V37.3334ZM33.3333 40.6667V50.6667H43.3333V40.6667H33.3333Z" fill="#07AA97"/>
</svg>
