<svg width="50" height="58" viewBox="0 0 50 58" fill="none" xmlns="http://www.w3.org/2000/svg">
<path d="M1.66675 28.5333C1.66675 24.0067 1.66675 21.7433 2.58008 19.7533C3.49675 17.7633 5.21341 16.2933 8.65008 13.3467L11.9834 10.49C18.2001 5.16667 21.3001 2.5 25.0001 2.5C28.7001 2.5 31.8034 5.16333 38.0167 10.4867L41.3501 13.3433C44.7834 16.29 46.5034 17.76 47.4167 19.75C48.3334 21.74 48.3334 24.0033 48.3334 28.53V42.6667C48.3334 48.9533 48.3334 52.0933 46.3801 54.0467C44.4267 56 41.2867 56 35.0001 56H15.0001C8.71341 56 5.57341 56 3.62008 54.0467C1.66675 52.0933 1.66675 48.9533 1.66675 42.6667V28.5333Z" stroke="black" stroke-width="3.33333"/>
<path d="M33.3334 56V39.3333C33.3334 38.4493 32.9822 37.6014 32.3571 36.9763C31.732 36.3512 30.8841 36 30.0001 36H20.0001C19.116 36 18.2682 36.3512 17.6431 36.9763C17.0179 37.6014 16.6667 38.4493 16.6667 39.3333V56" stroke="black" stroke-width="3.33333" stroke-linecap="round" stroke-linejoin="round"/>
</svg>
